# xmcd
#
# Track frame offsets:
#	150
#	16441
#	31224
#	47646
#	63977
#	78644
#	95838
#	107558
#	116330
#	132743
#	148146
#	168806
#	185960
#	197853
#	209521
#	220684
#	231057
#	251481
#	266129
#	287244
#	305620
#
# Disc length: 4223 seconds
#
# Revision: 13
# Processed by: cddbd v1.5.2PL0 Copyright (c) Steve Scherf et al.
# Submitted via: EasyCDDAExtractor 2010.6.0.0
#
DISCID=45107d15
DTITLE=Various Artist - Crazy Little Thing Called Love
DYEAR=2002
DGENRE=Pop
TTITLE0=Kim Carnes - Crazy In The Night
TTITLE1=America - Sister Golden Hair
TTITLE2=Unchained Melody - Righteous Brothers
TTITLE3=Leann Rimes - You Light Up My Life
TTITLE4=Glen Campbell - Rhinestone Cowboy
TTITLE5=Alan Jackson - Livin' On Love
TTITLE6=Waylon Jennings - Mamas Dont Let Ur Babies Grow Up 2 B Cowboys
TTITLE7=Mac Davis - Hard To Be Humble
TTITLE8=Olivia Newton John - I Honestly Love You
TTITLE9=Smokie - If U Think U know How 2 Luv Me
TTITLE10=Exile - Take Me Down
TTITLE11=David Scobie - Gypsy Girl
TTITLE12=England Dan and John Ford Coley - I'd Really Luv To See U Tonight
TTITLE13=David Dundas - Jeans On
TTITLE14=Linda Ronstadt - Linda Ronstadt
TTITLE15=Everly Brothers - Walk Right Back
TTITLE16=Eric Carmen - All By Myself
TTITLE17=Dolly Parton - The Seeker
TTITLE18=Marty Robbins - El Paso
TTITLE19=Kris Kristofferson - Me And Bobby McGee
TTITLE20=Sgt Barry Sadler - Ballad Of The Green Beret
EXTD=
EXTT0=
EXTT1=
EXTT2=
EXTT3=
EXTT4=
EXTT5=
EXTT6=
EXTT7=
EXTT8=
EXTT9=
EXTT10=
EXTT11=
EXTT12=
EXTT13=
EXTT14=
EXTT15=
EXTT16=
EXTT17=
EXTT18=
EXTT19=
EXTT20=
PLAYORDER=
